<?xml version="1.0" standalone="no"?>
<!DOCTYPE svg PUBLIC "-//W3C//DTD SVG 20010904//EN"
 "http://www.w3.org/TR/2001/REC-SVG-20010904/DTD/svg10.dtd">
<svg version="1.0" xmlns="http://www.w3.org/2000/svg"
 width="200.000000pt" height="200.000000pt" viewBox="0 0 200.000000 200.000000"
 preserveAspectRatio="xMidYMid meet">
<metadata>
Created by potrace 1.11, written by Peter Selinger 2001-2013
</metadata>
<g transform="translate(0.000000,200.000000) scale(0.100000,-0.100000)"
fill="#000000" stroke="none">
<path d="M885 1625 c-51 -14 -111 -44 -156 -80 -76 -61 -139 -194 -139 -295 0
-101 58 -225 138 -296 36 -32 123 -74 167 -81 20 -3 34 -8 32 -12 -19 -36 -37
-85 -39 -111 -2 -25 -9 -35 -29 -42 -24 -8 -49 -44 -63 -90 -3 -10 -12 -18
-20 -18 -12 0 -13 11 -9 55 5 51 4 55 -15 55 -11 0 -31 -14 -45 -31 l-24 -31
5 31 c3 23 0 31 -11 31 -11 0 -20 -15 -27 -42 -17 -65 -19 -70 -33 -65 -13 4
-13 16 -2 73 5 30 4 35 -11 32 -9 -1 -24 -23 -34 -48 -31 -78 -50 -53 -24 33
4 12 0 17 -15 17 -20 0 -26 -11 -35 -62 -6 -36 -14 -48 -32 -48 -10 0 -13 7
-10 22 6 26 9 57 7 76 -2 23 -40 12 -65 -20 -39 -50 -31 -22 10 34 45 61 58
130 27 147 -16 8 -24 6 -40 -8 -16 -15 -36 -18 -114 -18 -134 1 -194 -31 -174
-94 9 -27 41 -21 37 7 -3 25 13 39 51 46 26 5 27 4 22 -26 -31 -173 -32 -186
-18 -198 18 -14 37 2 39 35 4 60 28 178 38 184 6 4 26 7 44 8 l33 0 -7 -50
c-5 -27 -8 -79 -8 -115 -1 -79 18 -88 49 -23 29 59 39 65 31 17 -8 -53 11 -73
53 -58 18 7 32 7 43 0 13 -8 22 -6 36 7 17 16 20 16 25 2 8 -18 38 -20 56 -2
11 9 14 9 18 0 9 -26 31 -12 47 32 22 57 40 69 32 23 -3 -22 0 -42 8 -54 12
-16 19 -17 44 -8 22 9 33 9 41 1 8 -8 20 -8 43 1 23 9 35 9 45 0 10 -8 20 -8
39 1 20 9 34 9 59 0 24 -9 40 -9 63 -1 19 7 34 7 37 1 11 -17 25 -9 35 19 17
44 33 72 42 72 5 0 7 -4 4 -9 -20 -32 43 -57 73 -29 11 11 12 5 6 -31 l-7 -44
28 7 c16 3 47 8 69 10 22 2 52 9 67 15 47 18 65 80 28 103 -18 12 -18 13 11
25 61 25 55 99 -9 124 -58 23 -201 -7 -215 -46 -8 -19 10 -19 57 0 40 17 99
22 133 11 51 -16 30 -69 -33 -80 -42 -8 -44 -28 -4 -43 61 -23 26 -73 -50 -73
-27 0 -29 2 -23 37 3 21 9 54 14 73 13 51 11 60 -10 60 -20 0 -41 -44 -41 -85
0 -15 -8 -25 -22 -29 -13 -3 -25 -7 -28 -8 -2 -2 -4 10 -5 27 0 40 -27 44 -61
10 l-27 -27 7 26 c5 21 3 26 -14 26 -13 0 -21 -8 -25 -25 -3 -14 -7 -36 -10
-49 -6 -28 -60 -55 -77 -38 -7 7 -4 12 11 17 12 3 28 17 37 30 28 43 -9 79
-61 59 -18 -7 -50 -63 -41 -72 8 -8 -14 -32 -30 -32 -20 0 -17 18 16 95 29 70
39 142 20 161 -6 6 3 9 23 8 79 -3 189 47 259 117 116 116 145 300 71 444 -81
156 -271 243 -438 200z m-465 -816 c0 -27 -33 -96 -38 -80 -6 17 19 101 29
101 5 0 9 -9 9 -21z m516 -80 l-15 -34 4 49 c3 26 8 58 12 70 7 18 8 15 11
-15 2 -20 -4 -52 -12 -70z m-67 -130 c-32 -19 -39 22 -11 61 l17 25 3 -39 c2
-24 -2 -42 -9 -47z m171 66 c0 -8 -9 -19 -19 -25 -14 -7 -19 -6 -17 3 5 32 36
52 36 22z"/>
<path d="M1718 863 c-29 -7 -57 -79 -71 -183 -4 -26 -15 -26 -37 3 -39 50
-102 29 -116 -39 -4 -21 0 -37 16 -57 29 -36 63 -35 92 3 28 38 42 38 58 0 15
-36 57 -41 85 -10 15 17 19 17 32 5 34 -35 103 -23 120 21 9 23 -5 29 -25 11
-39 -35 -72 -17 -72 39 0 20 5 24 29 24 16 0 34 6 40 13 13 16 5 28 -15 20
-18 -7 -18 2 2 32 21 31 15 89 -9 93 -28 6 -54 -25 -68 -77 -6 -26 -18 -48
-24 -48 -11 0 -11 9 -1 42 21 67 4 117 -36 108z m9 -83 c-3 -27 -13 -62 -22
-77 -16 -28 -16 -28 -11 22 4 52 21 105 32 105 4 0 4 -22 1 -50z m102 -32
c-18 -32 -24 -1 -8 38 12 27 13 27 16 7 3 -12 -1 -32 -8 -45z m-69 -93 c0 -25
-46 -69 -61 -59 -14 8 -11 26 11 61 22 37 50 35 50 -2z m-193 -52 c-15 -15
-17 -14 -28 9 -8 20 -8 31 2 49 l12 23 15 -32 c14 -30 14 -34 -1 -49z"/>
<path d="M550 430 c0 -40 4 -70 10 -70 11 0 13 11 12 48 -1 32 12 27 23 -10
12 -40 32 -47 44 -16 5 13 14 34 20 48 10 23 11 22 7 -11 -3 -36 7 -69 19 -58
8 8 13 98 7 121 -2 10 -11 18 -19 18 -12 0 -21 -15 -48 -85 -4 -11 -9 -15 -10
-10 -19 73 -30 95 -47 95 -16 0 -18 -9 -18 -70z"/>
<path d="M728 488 c9 -9 15 -9 24 0 9 9 7 12 -12 12 -19 0 -21 -3 -12 -12z"/>
<path d="M910 490 c0 -5 7 -10 15 -10 8 0 15 5 15 10 0 6 -7 10 -15 10 -8 0
-15 -4 -15 -10z"/>
<path d="M970 430 c0 -51 4 -70 13 -70 9 0 13 14 12 45 -1 51 5 50 20 -3 14
-50 36 -47 57 8 l17 45 0 -48 c1 -34 5 -47 14 -44 13 4 18 110 6 129 -13 20
-35 0 -48 -41 -6 -23 -15 -41 -19 -41 -4 0 -13 20 -20 45 -9 34 -17 45 -32 45
-18 0 -20 -7 -20 -70z"/>
<path d="M1355 473 c-10 -24 -6 -85 7 -100 12 -15 48 -17 48 -4 0 5 -7 11 -15
15 -9 3 -15 18 -15 35 0 24 3 29 16 24 12 -4 15 -2 12 8 -3 8 -11 13 -17 12
-6 -2 -11 4 -11 12 0 21 -16 19 -25 -2z"/>
<path d="M729 458 c-5 -78 -3 -98 8 -98 14 0 16 5 16 45 0 51 -3 65 -13 65 -5
0 -10 -6 -11 -12z"/>
<path d="M786 455 c-2 -5 -3 -28 -2 -49 1 -50 26 -62 26 -13 0 37 26 71 34 46
3 -8 6 -27 8 -43 2 -16 9 -31 16 -34 16 -5 17 84 0 94 -18 12 -77 11 -82 -1z"/>
<path d="M910 415 c0 -41 3 -56 13 -53 16 6 16 100 0 105 -10 4 -13 -11 -13
-52z"/>
<path d="M1160 460 c-14 -9 -11 -12 17 -14 22 -2 15 -21 -9 -26 -32 -8 -37
-48 -6 -55 29 -6 61 -2 69 8 10 13 -1 81 -14 89 -16 10 -39 10 -57 -2z m44
-65 c-7 -17 -20 -20 -28 -6 -7 10 3 21 20 21 8 0 11 -6 8 -15z"/>
<path d="M1267 463 c-9 -17 -1 -96 11 -100 7 -3 12 5 12 20 0 36 10 57 26 57
8 0 14 7 14 15 0 17 -16 20 -25 5 -5 -8 -11 -8 -20 0 -7 6 -15 7 -18 3z"/>
</g>
</svg>
